<?xml version="1.0" standalone="no"?>
<!DOCTYPE svg PUBLIC "-//W3C//DTD SVG 20010904//EN"
 "http://www.w3.org/TR/2001/REC-SVG-20010904/DTD/svg10.dtd">
<svg version="1.0" xmlns="http://www.w3.org/2000/svg"
 width="640.000000pt" height="360.000000pt" viewBox="0 0 640.000000 360.000000"
 preserveAspectRatio="xMidYMid meet">

<g transform="translate(0.000000,360.000000) scale(0.100000,-0.100000)"
fill="#000000" stroke="none">
<path d="M2272 3465 c-38 -32 -56 -76 -48 -118 7 -39 58 -93 77 -82 7 5 10 4
5 -3 -3 -6 6 -13 23 -17 65 -14 141 53 141 125 0 41 -35 99 -67 111 -45 17
-99 11 -131 -16z"/>
<path d="M4728 3088 c-46 -57 -35 -64 22 -17 28 23 36 35 27 41 -19 12 -22 10
-49 -24z"/>
<path d="M1420 2975 l0 -135 395 0 395 0 0 -780 c0 -861 0 -853 -63 -1015 -69
-174 -221 -351 -387 -449 -91 -54 -217 -102 -292 -112 l-48 -7 0 -134 0 -135
47 7 c493 74 882 446 990 945 17 79 18 152 18 1015 l0 930 -527 3 -528 3 0
-136z"/>
<path d="M3282 3088 c2 -15 10 -23 23 -23 30 0 27 39 -3 43 -20 3 -23 0 -20
-20z"/>
<path d="M4520 2885 c0 -218 1 -225 20 -225 19 0 20 7 20 225 0 218 -1 225
-20 225 -19 0 -20 -7 -20 -225z"/>
<path d="M100 2206 c0 -580 4 -922 11 -971 58 -421 329 -776 716 -939 73 -31
194 -66 286 -82 l37 -6 0 134 0 134 -63 13 c-334 66 -630 368 -701 713 -13 65
-16 162 -16 598 l0 520 390 0 390 0 0 130 0 130 -390 0 -390 0 0 130 0 130
390 0 390 0 0 130 0 130 -525 0 -525 0 0 -894z"/>
<path d="M2886 3092 c-3 -3 -6 -101 -6 -219 0 -206 1 -213 20 -213 19 0 20 7
20 100 l0 100 125 0 c118 0 125 1 125 20 0 18 -8 20 -122 22 l-123 3 -3 78 -3
77 136 0 c129 0 135 1 135 20 0 20 -5 21 -149 19 -82 0 -152 -3 -155 -7z"/>
<path d="M3284 2825 c1 -150 3 -165 19 -165 15 0 17 15 17 165 0 153 -1 165
-18 165 -17 0 -18 -12 -18 -165z"/>
<path d="M3483 2978 c-31 -15 -56 -70 -44 -100 10 -26 32 -48 53 -52 7 -2 26
-8 41 -14 16 -7 33 -12 38 -12 26 0 59 -34 59 -61 0 -57 -69 -75 -149 -39 -52
24 -47 24 -55 4 -8 -21 66 -54 124 -54 58 0 91 17 112 59 31 62 -1 103 -105
135 -67 21 -91 47 -75 82 17 37 106 44 146 11 10 -8 16 -7 23 4 14 22 11 26
-22 38 -40 14 -117 13 -146 -1z"/>
<path d="M3845 2971 c-32 -19 -83 -71 -72 -71 4 0 0 -11 -9 -25 -19 -28 -15
-84 7 -130 40 -82 160 -121 233 -76 29 18 33 25 23 35 -10 11 -18 10 -47 -5
-19 -11 -46 -19 -60 -19 -36 0 -86 34 -105 71 -62 118 49 249 163 192 31 -15
41 -16 51 -6 9 10 5 17 -21 33 -43 26 -122 27 -163 1z"/>
<path d="M4185 2977 c-20 -8 -30 -18 -27 -29 3 -15 6 -15 39 -2 30 13 150 17
138 5 -2 -2 2 -16 10 -32 8 -15 15 -39 15 -52 0 -24 -1 -24 -55 -14 -31 5 -72
6 -92 2 -121 -22 -126 -186 -6 -202 54 -7 84 1 122 33 l31 26 0 -24 c0 -30 7
-38 26 -31 11 4 14 31 14 125 0 133 -11 167 -60 193 -34 18 -112 19 -155 2z
m138 -153 c35 -6 37 -9 37 -43 0 -40 -11 -59 -50 -85 -57 -37 -150 -5 -150 53
0 65 58 92 163 75z"/>
<path d="M4670 2825 c0 -164 0 -165 23 -165 22 0 22 1 23 165 l1 165 -24 0
-23 0 0 -165z"/>
<path d="M4871 2976 c-29 -10 -31 -13 -17 -25 12 -10 23 -11 47 -2 44 15 91
14 116 -4 22 -16 48 -78 39 -93 -3 -5 -30 -5 -61 1 -78 13 -118 3 -154 -39
-34 -38 -37 -54 -20 -103 8 -22 16 -30 26 -27 8 3 11 2 8 -4 -9 -15 30 -30 78
-30 31 0 55 8 81 25 44 30 46 30 46 5 0 -13 7 -20 20 -20 19 0 20 7 20 96 0
179 -33 235 -138 233 -31 0 -72 -6 -91 -13z m179 -161 c6 -4 10 -18 10 -33 0
-83 -127 -136 -185 -77 -35 34 -32 67 7 100 30 25 37 27 96 22 34 -4 67 -9 72
-12z"/>
<path d="M3040 2361 c-104 -34 -179 -121 -180 -209 -1 -183 179 -296 341 -214
l54 27 3 93 3 92 -86 0 c-83 0 -85 0 -85 -24 0 -23 3 -24 63 -24 l62 1 3 -55
c3 -51 1 -57 -24 -73 -32 -21 -98 -30 -149 -21 -66 13 -144 107 -145 175 -1
82 64 171 140 191 55 15 138 -1 165 -30 14 -15 21 -17 32 -9 24 21 14 36 -39
59 -59 25 -120 34 -158 21z"/>
<path d="M5210 2140 c0 -223 1 -230 20 -230 19 0 20 7 20 230 0 223 -1 230
-20 230 -19 0 -20 -7 -20 -230z"/>
<path d="M3447 2235 c-8 -8 -17 -12 -20 -9 -3 3 -19 -13 -36 -37 -27 -36 -31
-51 -31 -104 0 -71 22 -114 79 -152 40 -27 110 -31 164 -8 41 17 49 26 38 43
-6 9 -16 8 -42 -5 -19 -10 -54 -18 -79 -18 -37 -1 -51 4 -77 29 -18 17 -36 46
-39 64 l-6 32 141 0 141 0 -6 28 c-15 67 -27 93 -60 122 -30 26 -42 30 -94 30
-38 0 -64 -5 -73 -15z m149 -49 c21 -21 34 -44 34 -60 l0 -26 -115 0 c-128 0
-135 5 -96 64 26 39 57 55 105 56 30 0 45 -7 72 -34z"/>
<path d="M3777 2243 c-2 -5 -5 -81 -6 -170 -2 -158 -1 -163 19 -163 19 0 20 6
20 113 0 137 3 147 44 175 45 31 96 29 130 -4 25 -26 26 -30 26 -155 0 -124 1
-129 21 -129 20 0 20 4 17 141 l-3 141 -33 29 c-44 39 -116 41 -160 4 -17 -14
-33 -25 -36 -25 -3 0 -6 11 -6 25 0 23 -23 36 -33 18z"/>
<path d="M4234 2231 c-90 -55 -110 -183 -42 -262 53 -60 137 -75 217 -38 41
18 43 21 29 35 -14 14 -18 14 -39 1 -82 -53 -182 -16 -204 76 l-7 27 142 0
143 0 -6 34 c-9 55 -38 107 -71 127 -41 25 -121 25 -162 0z m129 -20 c26 -10
67 -68 67 -95 0 -14 -15 -16 -114 -16 -64 0 -118 4 -121 10 -10 16 24 70 58
90 35 22 72 25 110 11z"/>
<path d="M4577 2243 c-4 -3 -7 -80 -7 -170 0 -154 1 -163 19 -163 18 0 20 10
23 121 l3 121 33 29 c18 16 46 32 63 36 34 6 40 33 7 33 -27 0 -88 -35 -88
-50 0 -5 -4 -10 -10 -10 -5 0 -10 14 -10 30 0 28 -17 40 -33 23z"/>
<path d="M4878 2238 c-16 -5 -28 -17 -28 -25 0 -12 6 -14 28 -8 65 16 113 17
137 1 24 -16 51 -85 37 -97 -4 -4 -30 -2 -57 3 -69 15 -122 3 -157 -34 -32
-35 -36 -76 -11 -118 33 -56 122 -68 186 -25 20 14 38 22 39 18 0 -4 1 -15 2
-23 1 -8 9 -16 19 -18 17 -4 18 5 15 138 l-3 142 -33 29 c-28 25 -40 29 -90
28 -31 0 -69 -5 -84 -11z m137 -156 c35 -6 40 -11 42 -36 6 -84 -124 -138
-189 -79 -34 31 -21 88 26 109 35 15 62 16 121 6z"/>
<path d="M1210 2050 c-239 -29 -444 -188 -534 -413 -38 -96 -49 -168 -43 -282
14 -267 189 -498 443 -585 94 -32 279 -40 374 -15 110 28 216 90 301 174 134
134 188 265 197 474 l5 127 -267 0 -266 0 0 -135 0 -135 120 0 c66 0 120 -2
120 -5 0 -3 -9 -23 -19 -43 -34 -67 -106 -137 -178 -173 -64 -32 -73 -34 -173
-34 -93 0 -112 3 -162 27 -248 116 -314 431 -131 628 37 40 77 70 121 92 62
31 75 33 185 37 l118 3 -3 132 -3 131 -70 1 c-38 1 -99 -2 -135 -6z"/>
<path d="M1753 1890 c-119 -72 -46 -250 91 -224 52 9 96 63 96 115 0 105 -99
163 -187 109z"/>
<path d="M5812 1644 c-29 -20 -28 -50 2 -69 29 -19 54 -11 62 21 11 43 -29 73
-64 48z"/>
<path d="M5260 1635 c-15 -19 -6 -61 16 -69 22 -8 64 20 64 42 0 39 -55 57
-80 27z"/>
<path d="M3140 1563 c4 -124 6 -120 -35 -85 -45 40 -89 48 -143 27 -133 -54
-132 -274 1 -324 57 -22 107 -12 155 32 22 20 27 15 23 -20 -1 -7 7 -13 19
-13 20 0 20 5 20 225 0 222 0 225 -21 225 -19 0 -21 -5 -19 -67z m-47 -104
c47 -48 64 -128 37 -181 -28 -53 -51 -68 -106 -68 -47 0 -55 4 -82 34 -16 18
-32 50 -36 70 -12 62 21 136 69 157 28 12 101 4 118 -12z"/>
<path d="M4070 1456 c0 -150 -2 -165 -21 -190 -27 -35 -76 -35 -117 -1 l-29
24 -22 -23 c-28 -29 -20 -47 32 -76 81 -46 179 -23 218 50 16 30 19 58 19 207
l0 173 -40 0 -40 0 0 -164z"/>
<path d="M5020 1560 c0 -47 -2 -50 -25 -50 -21 0 -25 -5 -25 -29 0 -23 5 -30
23 -33 21 -3 22 -8 27 -118 3 -63 9 -121 14 -129 5 -7 24 -20 43 -28 42 -17
103 -2 103 25 0 28 -16 45 -36 38 -40 -12 -49 7 -49 111 l0 98 38 3 c33 3 37
6 37 32 0 26 -4 29 -37 32 -38 3 -38 3 -41 51 -3 46 -4 47 -38 47 l-34 0 0
-50z"/>
<path d="M3395 1506 c-74 -34 -105 -83 -105 -166 0 -130 121 -206 244 -152 25
12 46 25 46 30 0 17 -27 21 -47 7 -19 -14 -46 -18 -100 -16 -42 1 -91 45 -99
89 l-6 32 137 0 138 0 -6 46 c-11 102 -117 170 -202 130z m131 -60 c21 -21 34
-44 34 -60 l0 -26 -115 0 c-124 0 -126 1 -105 54 13 35 67 66 114 66 30 0 45
-7 72 -34z"/>
<path d="M4714 1506 c-41 -18 -64 -52 -64 -94 0 -44 30 -70 111 -97 73 -25 95
-48 65 -71 -27 -19 -63 -17 -114 6 l-42 19 -17 -26 c-16 -25 -16 -26 5 -44 13
-10 47 -23 77 -29 101 -21 180 22 180 100 0 48 -23 74 -84 96 -103 36 -102 36
-99 58 4 27 61 33 111 12 35 -14 35 -14 48 16 14 34 8 41 -51 58 -47 13 -89
12 -126 -4z"/>
<path d="M5512 1499 c-82 -41 -119 -132 -88 -214 42 -109 165 -152 264 -93 38
23 39 29 12 53 -19 18 -22 18 -56 2 -43 -21 -57 -21 -95 -1 -38 19 -63 75 -54
120 12 68 99 106 153 68 22 -15 25 -15 48 7 28 26 19 44 -33 66 -47 19 -102
16 -151 -8z"/>
<path d="M6040 1509 c-48 -15 -56 -24 -42 -54 10 -22 15 -23 37 -15 15 6 46
10 70 10 35 0 48 -5 64 -26 30 -38 28 -56 -6 -47 -48 12 -117 7 -150 -10 -91
-48 -74 -168 27 -197 35 -10 105 1 123 19 16 16 27 14 27 -5 0 -12 9 -14 38
-12 l37 3 0 120 c0 131 -9 163 -57 198 -32 24 -115 31 -168 16z m124 -189 c44
-16 27 -69 -28 -90 -40 -15 -64 -12 -86 10 -56 56 27 114 114 80z"/>
<path d="M4250 1390 c0 -135 11 -175 56 -205 39 -25 107 -24 143 3 28 21 29
21 34 2 4 -15 14 -20 41 -20 l36 0 0 170 0 170 -40 0 -40 0 0 -114 c0 -128
-10 -151 -67 -162 -26 -5 -37 -1 -57 19 -25 25 -26 31 -26 142 l0 115 -40 0
-40 0 0 -120z"/>
<path d="M5252 1343 l3 -168 38 -3 37 -3 0 170 0 171 -40 0 -40 0 2 -167z"/>
<path d="M5800 1339 l0 -170 38 3 37 3 3 145 c3 183 2 190 -43 190 l-35 0 0
-171z"/>
<path d="M4558 832 c-1114 -1 -1688 -5 -1688 -12 0 -7 575 -10 1695 -10 1527
0 1734 3 1688 22 -5 2 -767 2 -1695 0z"/>
<path d="M3015 641 c-92 -43 -107 -162 -30 -230 29 -26 44 -31 84 -31 56 0
105 29 84 50 -9 10 -17 9 -34 -4 -76 -53 -176 44 -139 134 23 56 82 75 140 45
25 -13 29 -13 34 1 3 9 6 17 6 19 0 5 -80 35 -93 35 -6 0 -30 -9 -52 -19z"/>
<path d="M3204 649 c-9 -15 11 -33 30 -26 9 4 13 13 10 22 -7 17 -30 20 -40 4z"/>
<path d="M3690 610 c0 -27 -2 -50 -4 -50 -2 0 -20 7 -39 15 -68 28 -122 -16
-121 -98 0 -42 5 -54 28 -74 29 -25 74 -30 109 -12 16 9 22 9 25 0 2 -6 10
-11 18 -11 11 0 14 26 14 140 0 118 -2 140 -15 140 -11 0 -15 -12 -15 -50z
m-39 -60 c4 0 16 -14 24 -31 38 -72 -39 -145 -97 -92 -29 26 -24 87 9 113 15
11 33 18 41 15 7 -3 18 -5 23 -5z"/>
<path d="M4160 610 c0 -27 -2 -50 -3 -50 -2 0 -17 6 -33 14 -38 19 -79 10
-105 -23 -29 -36 -23 -126 11 -153 27 -22 78 -23 108 -2 20 14 22 14 22 0 0
-9 7 -16 15 -16 13 0 15 22 15 140 0 118 -2 140 -15 140 -11 0 -15 -12 -15
-50z m-25 -75 c29 -28 32 -70 9 -103 -24 -35 -84 -28 -103 12 -17 37 -4 86 29
103 34 17 37 17 65 -12z"/>
<path d="M4520 611 c0 -28 -2 -51 -3 -51 -2 0 -17 6 -33 14 -61 30 -124 -16
-124 -92 0 -39 23 -87 45 -96 30 -11 78 -6 97 11 17 15 18 15 18 -1 0 -11 6
-16 18 -14 15 3 17 18 17 138 0 120 -2 135 -17 138 -15 3 -18 -4 -18 -47z
m-25 -76 c29 -28 32 -70 9 -103 -24 -35 -84 -28 -103 12 -17 37 -4 86 29 103
34 17 37 17 65 -12z"/>
<path d="M5375 640 c-10 -11 -16 -23 -12 -26 7 -7 57 25 57 37 0 16 -26 9 -45
-11z"/>
<path d="M5747 654 c-14 -14 -7 -35 11 -32 9 2 17 10 17 17 0 16 -18 25 -28
15z"/>
<path d="M4970 515 c0 -113 2 -135 15 -135 12 0 15 17 15 90 0 50 3 90 8 90 4
0 25 -34 46 -75 22 -41 42 -75 45 -75 4 0 24 34 46 75 l40 74 5 -87 c4 -72 8
-87 23 -90 15 -3 17 8 17 132 0 124 -2 136 -18 136 -12 0 -32 -27 -62 -85 -25
-47 -47 -85 -50 -85 -3 0 -25 38 -50 85 -30 57 -51 85 -62 85 -16 0 -18 -13
-18 -135z"/>
<path d="M3833 579 c-32 -9 -40 -19 -27 -32 3 -3 19 -1 35 5 23 8 35 7 54 -6
41 -27 32 -47 -17 -40 -35 5 -48 2 -70 -16 -33 -25 -37 -69 -10 -93 22 -20 82
-22 101 -4 11 10 14 10 18 0 3 -7 11 -13 19 -13 22 0 20 151 -3 178 -22 25
-58 32 -100 21z m82 -129 c0 -47 -86 -63 -100 -18 -10 31 13 49 59 46 36 -3
41 -6 41 -28z"/>
<path d="M4683 583 c-12 -2 -34 -18 -48 -34 -58 -69 -13 -169 75 -169 54 0 86
16 70 35 -9 11 -17 12 -30 5 -29 -15 -65 -12 -83 8 -31 35 -21 42 58 42 69 0
75 2 75 20 0 37 -28 77 -61 89 -18 6 -32 10 -33 10 -1 -1 -11 -4 -23 -6z m71
-55 c9 -12 14 -24 11 -26 -6 -6 -107 -4 -113 3 -3 3 3 14 13 25 24 27 70 26
89 -2z"/>
<path d="M5350 581 c-30 -8 -70 -64 -70 -98 0 -32 26 -80 49 -93 27 -14 94
-13 115 3 16 12 16 15 3 26 -10 8 -17 9 -22 1 -10 -17 -70 -12 -88 8 -32 35
-21 42 63 42 59 0 78 3 76 13 -3 6 -7 24 -10 39 -10 43 -67 72 -116 59z m72
-48 c29 -26 21 -33 -42 -33 -33 0 -60 3 -60 7 0 3 7 15 17 25 20 22 61 23 85
1z"/>
<path d="M5890 577 c-43 -15 -74 -67 -65 -112 9 -48 52 -85 99 -85 39 1 82 21
70 33 -3 3 -28 3 -54 0 -42 -5 -49 -3 -64 18 -24 34 -20 76 9 105 19 19 31 23
48 18 55 -18 80 6 26 25 -18 6 -32 11 -33 10 -1 0 -17 -5 -36 -12z"/>
<path d="M6113 583 c-37 -7 -73 -59 -73 -105 0 -84 101 -130 165 -75 35 29 45
96 21 133 -14 21 -77 58 -88 53 -2 -1 -13 -4 -25 -6z m50 -34 c67 -31 48 -139
-25 -139 -54 0 -85 60 -57 111 8 16 28 30 56 38 1 1 13 -4 26 -10z"/>
<path d="M3210 480 c0 -82 3 -100 15 -100 12 0 15 18 15 100 0 82 -3 100 -15
100 -12 0 -15 -18 -15 -100z"/>
<path d="M3300 500 c0 -67 3 -83 20 -100 23 -23 79 -27 99 -7 11 10 14 10 18
0 3 -7 11 -13 19 -13 11 0 14 20 14 100 0 82 -3 100 -15 100 -12 0 -15 -14
-15 -69 0 -79 -13 -101 -60 -101 -39 0 -50 23 -50 104 0 52 -3 66 -15 66 -12
0 -15 -16 -15 -80z"/>
<path d="M5520 572 c0 -4 13 -23 30 -42 16 -19 29 -39 30 -44 0 -4 -16 -30
-36 -57 -31 -43 -33 -49 -16 -49 11 0 32 16 48 37 l27 36 31 -36 c17 -21 39
-37 49 -37 16 0 13 8 -17 49 -20 27 -36 52 -36 56 0 4 14 24 30 45 35 44 36
50 13 50 -10 0 -29 -16 -42 -36 l-24 -35 -23 28 c-13 15 -23 31 -24 36 0 10
-40 9 -40 -1z"/>
<path d="M5740 480 c0 -82 3 -100 15 -100 12 0 15 18 15 100 0 82 -3 100 -15
100 -12 0 -15 -18 -15 -100z"/>
</g>
</svg>
